<?xml version="1.0" encoding="UTF-8"?>
<!DOCTYPE svg PUBLIC "-//W3C//DTD SVG 1.1//EN" "http://www.w3.org/Graphics/SVG/1.1/DTD/svg11.dtd">
<!-- Creator: CorelDRAW 2018 (64-Bit Evaluation Version) -->
<svg xmlns="http://www.w3.org/2000/svg" xml:space="preserve" width="19.5578mm" height="5.0798mm" version="1.1" style="shape-rendering:geometricPrecision; text-rendering:geometricPrecision; image-rendering:optimizeQuality; fill-rule:evenodd; clip-rule:evenodd"
viewBox="0 0 1955.78 507.98"
 xmlns:xlink="http://www.w3.org/1999/xlink">
 <defs>
  <style type="text/css">
   <![CDATA[
    .fil2 {fill:#EF7F1A}
    .fil3 {fill:#273972}
    .fil4 {fill:#FEFEFE;fill-rule:nonzero}
    .fil0 {fill:#EF7F1A;fill-rule:nonzero}
    .fil1 {fill:#273972;fill-rule:nonzero}
   ]]>
  </style>
 </defs>
 <g id="Layer_x0020_1">
  <metadata id="CorelCorpID_0Corel-Layer"/>
  <g id="_2459455907888">
   <path class="fil0" d="M309.88 156.47c16.51,0 31.55,3.32 45.11,9.95 13.56,6.64 25.21,15.34 34.94,26.1 9.73,10.76 17.25,23.15 22.56,37.15 5.31,14.01 7.96,28.39 7.96,43.13 0,8.84 -1.18,18.28 -3.54,28.3l-156.57 0c5.9,10.03 14.3,18.51 25.21,25.44 10.91,6.93 22.7,10.39 35.38,10.39 12.68,0 23.81,-1.03 33.4,-3.09 9.58,-2.07 18.65,-4.72 27.2,-7.97l20.34 37.6c-10.91,7.67 -23.36,13.56 -37.37,17.69 -14.01,4.13 -28.97,6.19 -44.89,6.19 -17.4,0 -33.62,-3.02 -48.66,-9.06 -15.03,-6.05 -28.16,-14.23 -39.36,-24.55 -11.21,-10.32 -20.05,-22.56 -26.54,-36.71 -6.49,-14.16 -9.73,-29.19 -9.73,-45.12 0,-15.62 2.95,-30.44 8.85,-44.45 5.89,-14 14.08,-26.24 24.54,-36.71 10.47,-10.47 22.63,-18.8 36.49,-24.99 13.86,-6.19 28.75,-9.29 44.68,-9.29zm49.98 97.31c-3.54,-12.68 -9.88,-23 -19.02,-30.96 -9.14,-7.96 -19.46,-11.94 -30.96,-11.94 -11.8,0 -22.49,3.98 -32.07,11.94 -9.58,7.96 -16.15,18.28 -19.68,30.96l101.73 0z"/>
   <polygon class="fil1" points="588.81,31.56 588.81,94.83 562.61,94.83 562.61,319.27 588.81,319.27 588.81,382.05 461.27,382.05 461.27,319.27 487.47,319.27 487.47,94.83 461.27,94.83 461.27,31.56 "/>
   <path class="fil1" d="M776.91 31.56c25.38,0 47.87,4.61 67.31,13.84 19.53,9.23 35.76,21.75 48.78,37.57 13.02,15.82 22.99,34.44 29.74,55.86 6.76,21.42 10.14,44.16 10.14,68.22 0,24.39 -3.55,47.21 -10.63,68.47 -7.09,21.25 -16.98,39.79 -29.5,55.61 -12.52,15.82 -27.35,28.26 -44.57,37.32 -17.14,9.06 -35.76,13.6 -55.94,13.6l-156.96 0 0 -350.49 141.63 0zm0.25 282.27c14.17,0 26.28,-2.89 36.33,-8.65 10.05,-5.77 18.38,-13.52 24.97,-23.4 6.59,-9.89 11.45,-21.26 14.58,-34.03 3.13,-12.85 4.7,-26.28 4.7,-40.45 0,-14.17 -1.49,-27.69 -4.45,-40.7 -2.97,-13.02 -7.75,-24.39 -14.34,-34.28 -6.59,-9.89 -14.99,-17.71 -25.21,-23.64 -10.22,-5.94 -22.41,-8.9 -36.58,-8.9l-66.74 0 0 214.05 66.74 0z"/>
   <path class="fil0" d="M1035.44 382.05l-61.04 0 0 -219.38 61.04 0 0 219.38zm-30.52 -249.46c-9.43,0 -17.39,-3.24 -23.88,-9.73 -6.49,-6.49 -9.73,-14.45 -9.73,-23.89 0,-9.43 3.24,-17.47 9.73,-24.1 6.49,-6.64 14.45,-9.95 23.88,-9.95 9.44,0 17.4,3.31 23.89,9.95 6.48,6.63 9.73,14.67 9.73,24.1 0,9.44 -3.25,17.4 -9.73,23.89 -6.49,6.49 -14.45,9.73 -23.89,9.73z"/>
   <path class="fil0" d="M1194.97 162.67c8.18,0 17.32,1.17 27.35,3.53 9.95,2.36 19.38,6.79 28.16,13.27 8.84,6.49 16.29,15.48 22.26,26.98 6.04,11.5 9.07,26.39 9.07,44.68l0 130.92 -61.04 0 0 -128.35c0,-6.78 -1.11,-12.53 -3.32,-17.24 -2.21,-4.72 -5.16,-8.41 -8.84,-11.21 -3.69,-2.8 -7.89,-4.86 -12.61,-6.19 -4.72,-1.33 -9.44,-1.99 -14.15,-1.99 -3.84,0 -8.04,0.66 -12.61,1.99 -4.57,1.33 -8.85,3.46 -12.83,6.41 -3.98,2.95 -7.29,6.71 -9.95,11.43 -2.65,4.72 -3.98,10.32 -3.98,16.8l0 128.35 -61.04 0 0 -219.38 52.2 0 8.84 16.8c7.08,-5.01 14.97,-9.06 23.81,-12.16 8.85,-3.1 18.36,-4.64 28.68,-4.64z"/>
   <path class="fil0" d="M1337.54 144.09c0,-15.33 2.29,-28.53 6.93,-39.59 4.57,-11.05 10.76,-20.2 18.43,-27.42 7.74,-7.22 16.66,-12.53 26.76,-15.92 10.1,-3.39 20.71,-5.09 31.92,-5.09 6.78,0 13.56,0.59 20.34,1.77 6.79,1.18 13.57,2.95 20.35,5.31l-4.86 44.67 -14.6 -2.21c-2.36,-0.3 -4.5,-0.52 -6.41,-0.66 -1.92,-0.15 -3.76,-0.23 -5.53,-0.23 -11.21,0 -19.39,2.73 -24.55,8.19 -5.16,5.45 -7.74,13.34 -7.74,23.66l0 26.1 58.83 0 0 54.4 -58.83 0 0 164.98 -61.04 0 0 -164.98 -28.75 0 0 -32.29 28.75 -22.11 0 -18.58z"/>
   <path class="fil0" d="M1595.85 156.47c15.63,0 30.37,3.03 44.23,9.07 13.86,6.04 25.95,14.3 36.27,24.77 10.32,10.47 18.5,22.7 24.54,36.71 6.05,14.01 9.07,28.97 9.07,44.89 0,15.93 -3.02,30.89 -9.07,44.9 -6.04,14 -14.22,26.24 -24.54,36.71 -10.32,10.47 -22.41,18.72 -36.27,24.77 -13.86,6.04 -28.6,9.06 -44.23,9.06 -15.93,0 -30.82,-3.02 -44.67,-9.06 -13.86,-6.05 -25.95,-14.3 -36.27,-24.77 -10.32,-10.47 -18.51,-22.71 -24.55,-36.71 -6.04,-14.01 -9.07,-28.97 -9.07,-44.9 0,-15.92 3.03,-30.88 9.07,-44.89 6.04,-14.01 14.23,-26.24 24.55,-36.71 10.32,-10.47 22.41,-18.73 36.27,-24.77 13.85,-6.04 28.74,-9.07 44.67,-9.07zm0 177.37c7.37,0 14.23,-1.48 20.56,-4.43 6.34,-2.95 11.95,-7 16.81,-12.16 4.87,-5.16 8.7,-11.35 11.5,-18.58 2.8,-7.22 4.2,-15.26 4.2,-24.1 0,-8.85 -1.4,-17.11 -4.2,-24.77 -2.8,-7.67 -6.63,-14.38 -11.5,-20.13 -4.86,-5.75 -10.47,-10.32 -16.81,-13.71 -6.33,-3.39 -13.19,-5.08 -20.56,-5.08 -7.37,0 -14.3,1.69 -20.79,5.08 -6.49,3.39 -12.16,7.96 -17.03,13.71 -4.86,5.75 -8.7,12.46 -11.5,20.13 -2.8,7.66 -4.2,15.92 -4.2,24.77 0,8.84 1.4,16.88 4.2,24.1 2.8,7.23 6.64,13.42 11.5,18.58 4.87,5.16 10.54,9.21 17.03,12.16 6.49,2.95 13.42,4.43 20.79,4.43z"/>
   <path class="fil2" d="M461.95 405.44l124.94 0 0 89.51 -124.94 0c-6.19,0 -11.25,-5.07 -11.25,-11.26l0 -67c0,-6.19 5.06,-11.25 11.25,-11.25z"/>
   <path class="fil3" d="M586.89 405.44l333.67 0c6.19,0 11.26,5.06 11.26,11.25l0 67c0,6.19 -5.07,11.26 -11.26,11.26l-333.67 0 0 -89.51z"/>
   <path class="fil4" d="M536.05 423.65l-13.36 53.09 -12.6 0 -8.38 -34.06c-0.44,-1.78 -0.71,-3.76 -0.8,-5.96l-0.15 0c-0.21,2.41 -0.52,4.41 -0.91,5.96l-8.59 34.06 -13.14 0 -13.27 -53.09 12.43 0 7.11 35.36c0.3,1.5 0.53,3.52 0.67,6.06l0.21 0c0.1,-1.89 0.43,-3.97 1.02,-6.21l9.16 -35.21 12.17 0 8.28 35.65c0.3,1.31 0.58,3.21 0.81,5.7l0.14 0c0.1,-1.95 0.34,-3.92 0.74,-5.92l6.98 -35.43 11.48 0zm36.68 53.09l-30.29 0 0 -53.09 29.12 0 0 9.73 -17.74 0 0 11.82 16.51 0 0 9.69 -16.51 0 0 12.14 18.91 0 0 9.71z"/>
   <g>
    <polygon class="fil4" points="621.05,423.65 621.05,432.9 616.83,432.9 616.83,467.49 621.05,467.49 621.05,476.74 601.23,476.74 601.23,467.49 605.45,467.49 605.45,432.9 601.23,432.9 601.23,423.65 "/>
    <path class="fil4" d="M627.18 476.74l0 -53.09 17.89 0c17.93,0 26.9,8.62 26.9,25.88 0,8.26 -2.45,14.86 -7.34,19.8 -4.9,4.94 -11.41,7.41 -19.56,7.41l-17.89 0zm11.38 -43.36l0 33.65 5.64 0c4.92,0 8.78,-1.55 11.59,-4.66 2.8,-3.11 4.21,-7.34 4.21,-12.7 0,-5.05 -1.39,-9.03 -4.17,-11.93 -2.79,-2.9 -6.68,-4.36 -11.71,-4.36l-5.56 0z"/>
    <polygon class="fil4" points="708.39,476.74 678.1,476.74 678.1,423.65 707.22,423.65 707.22,433.38 689.49,433.38 689.49,445.2 706,445.2 706,454.89 689.49,454.89 689.49,467.03 708.39,467.03 "/>
    <path class="fil4" d="M759.95 476.74l-11.47 0 -20.82 -33.36c-1.21,-1.95 -2.07,-3.41 -2.54,-4.4l-0.13 0c0.18,1.87 0.28,4.74 0.28,8.58l0 29.18 -10.75 0 0 -53.09 12.26 0 20.04 32.31c0.91,1.47 1.75,2.91 2.53,4.34l0.15 0c-0.2,-1.23 -0.29,-3.67 -0.29,-7.29l0 -29.36 10.74 0 0 53.09z"/>
    <polygon class="fil4" points="806.23,433.38 791.82,433.38 791.82,476.74 780.41,476.74 780.41,433.38 766.09,433.38 766.09,423.65 806.23,423.65 "/>
    <polygon class="fil4" points="832.18,423.65 832.18,432.9 827.96,432.9 827.96,467.49 832.18,467.49 832.18,476.74 812.36,476.74 812.36,467.49 816.58,467.49 816.58,432.9 812.36,432.9 812.36,423.65 "/>
    <polygon class="fil4" points="867.51,433.38 849.7,433.38 849.7,446.42 866.06,446.42 866.06,456.11 849.7,456.11 849.7,476.74 838.32,476.74 838.32,423.65 867.51,423.65 "/>
    <path class="fil4" d="M917.48 423.65l-16.44 34.21 0 18.88 -11.37 0 0 -18.67 -16.02 -34.42 12.99 0 8.13 19.8c0.15,0.37 0.53,1.82 1.16,4.34l0.14 0c0.31,-1.78 0.68,-3.17 1.1,-4.19l8.28 -19.95 12.03 0z"/>
   </g>
  </g>
 </g>
</svg>
